<svg xmlns="http://www.w3.org/2000/svg" width="4701.003" height="417.43" viewBox="0 0 4701.003 417.43">
  <g id="Gradient_00000170253579222038536730000007452708529421630385_" transform="translate(793.51 564.731)">
    <g id="gradient-2_00000057862117703819199810000003949801199399913111_" transform="translate(-8074 -3732.5)">
      <g id="Group_1833_00000065073874049136504840000014727801464280980118_" transform="translate(9406.534 3692.5)">
        <path id="Intersection_20_00000028325361243473272050000017341561111031881913_" d="M2296.46-111.31V-493.57h21.84v360.42h256.66v21.84Zm-403.01,0v-21.84h266.49v21.84Zm-178.57,0-259.39-349.5v349.5h-21.84V-493.57h24.57l259.39,349.5v-349.5h21.84v382.26Zm-442.33,0-259.39-349.5v349.5H991.32V-493.57h24.57l259.39,349.5v-349.5h21.84v382.26ZM608.51-138.07q-33.855-26.76-49.42-70.45t-15.56-93.93V-493.58h21.84v191.13q0,48.06,13.65,86.28t42.87,60.62q29.22,22.395,74.54,22.39,45.87,0,74.81-22.39t42.59-60.62q13.65-38.22,13.65-86.28V-493.58h21.84v191.13q0,50.235-15.56,93.93-15.57,43.68-49.15,70.45t-88.19,26.76q-54.045,0-87.91-26.76ZM139.97-111.31V-493.57H416.29v21.84H161.81v158.36H388.98v21.84H161.81v180.21H139.97Zm-341.03-10.1q-29.76-10.11-48.33-22.66t-25.67-20.75l15.84-15.29q5.46,6.555,21.57,17.47t43.14,20.21q27.03,9.285,64.17,9.28,50.235,0,81.09-18.57t30.85-50.79q0-30.585-21.84-48.6t-62.25-32.77l-53.52-21.3a374.824,374.824,0,0,1-54.06-25.94q-23.475-13.92-36.86-31.95t-13.38-43.14q0-40.95,37.41-64.17t90.38-23.21a199.57,199.57,0,0,1,73.18,13.65q34.95,13.65,55.7,38.77l-16.93,13.65q-16.38-19.11-47.24-31.67a169.88,169.88,0,0,0-64.71-12.56q-47.5,0-76.73,18.29t-29.22,47.24q0,26.205,22.12,44.51t68.53,36.31q26.76,10.38,54.34,21.3a315.918,315.918,0,0,1,49.69,24.57q22.11,13.65,34.68,31.95,12.555,18.3,12.56,45.05,0,30.03-18.29,50.51t-48.87,30.58q-30.585,10.11-66.62,10.1-40.98.045-70.73-10.07Zm-220.35,10.1L-680.8-460.81v349.5h-21.84V-493.57h24.57l259.39,349.5v-349.5h21.84v382.26Zm-441.24,0L-1015-465.72l-152.36,354.41h-24.03l164.37-382.26h23.48l164.37,382.26Zm-481.64,0q-6.555-14.745-36.59-81.91t-50.24-82.73q-20.2-15.555-50.79-15.56h-91.74v-21.84h117.95q45.87,0,70.17-17.75t24.3-60.89q0-44.235-24.85-61.98t-72.36-17.75h-115.22v-21.84h115.22q55.155,0,87.37,22.94,31.68,23.475,31.67,78.64,0,46.41-22.66,70.45t-58.16,28.4q13.65,8.19,28.12,30.85t38.23,75.91q23.76,53.25,30.85,70.72l2.18,4.37h-23.45ZM1893.45-291.52v-21.84h228.26v21.84Zm0-180.21v-21.84h261.03v21.84Z" fill="#012840"/>
      </g>
      <g id="Group_1832_00000008117223826099669990000000454165647379068347_" transform="translate(8474 3834.499)">
        <path id="Intersection_14_00000110434187059164229160000007099482479953484713_" d="M-1036.25-249.3a11.685,11.685,0,0,1-11.69-11.69,11.685,11.685,0,0,1,11.69-11.69h.74a11.694,11.694,0,0,0,6.64-15.14,11.7,11.7,0,0,0-9.87-7.4h-47.02a11.685,11.685,0,0,1-11.69-11.69,11.685,11.685,0,0,1,11.69-11.69h39.25a11.686,11.686,0,0,0,6.64-15.14,11.711,11.711,0,0,0-6.68-6.66h-5.67a11.685,11.685,0,0,1-11.69-11.69,11.685,11.685,0,0,1,11.69-11.69h18.62a11.686,11.686,0,0,0,6.64-15.14,11.689,11.689,0,0,0-6.66-6.65h-72.23a11.685,11.685,0,0,1-11.69-11.69,11.685,11.685,0,0,1,11.69-11.69h54.97a10.9,10.9,0,0,0,6.83-10.13v-1.54a10.877,10.877,0,0,0-6.83-10.13h-23.66a11.685,11.685,0,0,1-11.69-11.69,11.685,11.685,0,0,1,11.69-11.69h40.79a11.7,11.7,0,0,0,6.68-15.13,11.728,11.728,0,0,0-6.67-6.68h-111.47a11.685,11.685,0,0,1-11.69-11.69,11.685,11.685,0,0,1,11.69-11.69h77.58a11.7,11.7,0,0,0,6.68-15.13,11.687,11.687,0,0,0-6.68-6.68h-21.52a11.685,11.685,0,0,1-11.69-11.69,11.685,11.685,0,0,1,11.69-11.69h42.81a11.692,11.692,0,0,0,8.64-14.1,11.689,11.689,0,0,0-11.26-8.96h-132.86a11.685,11.685,0,0,1-11.69-11.69,11.685,11.685,0,0,1,11.69-11.69h109.33a11.678,11.678,0,0,0,11.5-11.87,11.693,11.693,0,0,0-10.29-11.42h-80a11.685,11.685,0,0,1-11.69-11.69,11.685,11.685,0,0,1,11.69-11.69h353.17q.435,0,.87.03l-21.84-29.14H-801l30.5,40.4-28.87,40.4h-19.7l21.23-28.32H-989.98a11.688,11.688,0,0,0-10.2,13.01,11.7,11.7,0,0,0,11.44,10.29h53.51a11.685,11.685,0,0,1,11.69,11.69,11.685,11.685,0,0,1-11.69,11.69h-30.54a11.693,11.693,0,0,0-11.5,11.88,11.691,11.691,0,0,0,8.98,11.18h92.3a11.685,11.685,0,0,1,11.69,11.69,11.685,11.685,0,0,1-11.69,11.69H-991.83a11.681,11.681,0,0,0-6.7,15.1,11.686,11.686,0,0,0,6.71,6.7h36.91a11.685,11.685,0,0,1,11.69,11.69,11.685,11.685,0,0,1-11.69,11.69h-21.18a11.689,11.689,0,0,0-6.66,15.13,11.7,11.7,0,0,0,6.68,6.67h63.48a11.685,11.685,0,0,1,11.69,11.69,11.685,11.685,0,0,1-11.69,11.69h-85.65a10.877,10.877,0,0,0-6.83,10.13v1.54a10.877,10.877,0,0,0,6.83,10.13h23.66a11.685,11.685,0,0,1,11.69,11.69,11.685,11.685,0,0,1-11.69,11.69h-13.98a11.668,11.668,0,0,0-6.69,15.1,11.692,11.692,0,0,0,6.69,6.69h33.66a11.685,11.685,0,0,1,11.69,11.69,11.685,11.685,0,0,1-11.69,11.69h-58.87a11.684,11.684,0,0,0-6.72,15.09,11.669,11.669,0,0,0,6.69,6.71h11.19A11.677,11.677,0,0,1-990.86-307a11.67,11.67,0,0,1-10.73,11.71h2.88a11.677,11.677,0,0,0-11.55,11.82,11.667,11.667,0,0,0,7.46,10.76h15.53a11.685,11.685,0,0,1,11.69,11.69,11.685,11.685,0,0,1-11.69,11.69Z" fill="#012840"/>
      </g>
    </g>
  </g>
</svg>
